<?xml version="1.0" standalone="no"?><!-- Generator: Gravit.io --><svg xmlns="http://www.w3.org/2000/svg" xmlns:xlink="http://www.w3.org/1999/xlink" style="isolation:isolate" viewBox="-0.14 -0.135 24.14 24.186" width="24.14" height="24.186"><path d=" M 0 11.958 C 0 5.361 5.319 0.005 11.871 0.005 C 18.422 0.005 23.741 5.361 23.741 11.958 C 23.741 18.555 18.422 23.911 11.871 23.911 C 5.319 23.911 0 18.555 0 11.958 Z " fill="rgb(0,255,255)" vector-effect="non-scaling-stroke" stroke-width="0.093" stroke="rgb(0,238,238)" stroke-opacity="100" stroke-linejoin="miter" stroke-linecap="square" stroke-miterlimit="3"/><path d=" M 4.081 2.806 L 5.75 2.806 Q 6.353 2.573 6.863 3.18 C 7.373 3.787 4.822 9.25 4.452 9.717 C 4.081 10.184 1.067 11.818 0.742 11.771 Q 0.417 11.725 0 11.398 Q 0.232 8.549 1.669 6.355 Q 3.107 4.16 4.081 2.806 Z " fill="rgb(72,65,0)"/><path d=" M 0.371 11.958 L 1.669 11.958 Q 2.736 13.172 3.153 13.826 C 3.57 14.479 2.458 17.234 1.669 17.188 Q 0.881 17.141 0.927 16.814 L 0.371 13.079 L 0.371 11.958 Z " fill="rgb(72,65,0)"/><path d=" M 8.718 1.499 Q 7.651 3.693 8.161 4.114 C 8.671 4.534 9.367 4.067 10.016 3.553 C 10.665 3.04 11.361 2.012 10.943 1.499 Q 10.526 0.985 8.718 1.499 Z " fill="rgb(72,65,0)"/><path d=" M 10.572 11.958 C 9.97 12.518 8.718 13.312 9.088 14.199 C 9.459 15.086 9.97 16.534 10.943 16.44 C 11.917 16.347 13.447 15.04 13.169 14.012 C 12.891 12.985 12.752 12.332 12.984 11.958 C 13.215 11.584 14.607 10.37 15.951 10.651 C 17.296 10.931 17.76 10.931 18.548 11.398 C 19.336 11.865 20.681 11.304 21.33 10.464 C 21.979 9.623 22.35 9.717 22.258 8.409 Q 22.165 7.102 21.33 4.674 L 19.661 2.993 L 17.992 2.806 Q 16.137 3.46 15.58 4.114 C 15.024 4.767 14.282 5.841 12.984 6.168 Q 11.685 6.495 11.685 5.608 L 10.572 5.981 L 10.016 6.915 L 9.459 8.596 L 10.572 9.156 L 10.016 11.024 L 10.572 11.958 Z " fill="rgb(72,65,0)"/><path d=" M 20.217 16.067 Q 18.177 17.748 19.104 17.935 C 20.032 18.121 20.82 18.121 21.33 17.374 Q 21.84 16.627 20.217 16.067 Z " fill="rgb(72,65,0)"/><path d=" M 10.572 23.351 Q 10.572 23.444 11.314 23.538 C 12.056 23.631 13.03 23.865 13.169 23.351 C 13.308 22.837 12.056 22.417 11.685 22.604 Q 11.314 22.791 10.572 23.351 Z " fill="rgb(255,255,255)"/><path d=" M 10.572 0.378 Q 10.943 0.378 12.798 0.378 Q 12.937 0.051 12.242 0.005 Q 11.546 -0.042 10.572 0.378 Z " fill="rgb(255,255,255)"/><path d=" M 6.399 17.678 C 6.399 14.212 9.142 11.398 12.52 11.398 C 15.898 11.398 18.641 14.212 18.641 17.678 C 18.641 21.144 15.898 23.958 12.52 23.958 C 9.142 23.958 6.399 21.144 6.399 17.678 Z " fill="rgb(255,255,255)"/><path d=" M 12.149 11.3 Q 12.103 11.626 17.713 11.3 Q 19.614 10.646 20.125 10.179 C 20.635 9.712 22.258 8.171 21.794 6.444 Q 21.33 4.716 21.237 4.389 Q 22.35 6.304 22.721 7.191 C 23.092 8.078 23.649 9.198 23.834 10.553 C 24.02 11.907 24.205 14.054 23.463 15.409 C 23.408 15.51 23.329 15.63 23.236 15.761 C 22.712 16.504 21.756 17.617 22.2 17.918 C 22.721 18.272 21.284 19.634 20.866 20.078 C 20.032 20.965 17.806 22.786 15.858 23.253 C 13.911 23.72 12.381 24.163 13.633 23.626 C 14.885 23.089 12.195 10.973 12.149 11.3 Z " fill="rgb(255,255,255)"/><path d=" M 15.117 23.066 L 12.891 23.626 L 13.633 24 L 17.713 22.693 L 15.117 23.066 Z " fill="rgb(255,255,255)"/><path d=" M 23.236 14.475 L 22.907 16.903 L 21.237 19.518 L 23.236 14.475 Z " fill="rgb(255,255,255)"/><path d=" M 23.649 14.475 L 22.536 17.837 L 22.536 15.035 L 23.649 14.475 Z " fill="rgb(255,255,255)"/><path d=" M 21.237 4.389 L 22.536 6.257 L 23.649 9.245 L 23.649 10.553 L 21.237 4.389 Z " fill="rgb(255,255,255)"/><path d=" M 6.77 17.743 C 6.77 17.589 6.895 17.463 7.048 17.463 C 7.202 17.463 7.326 17.589 7.326 17.743 C 7.326 17.898 7.202 18.023 7.048 18.023 C 6.895 18.023 6.77 17.898 6.77 17.743 Z " fill="rgb(0,0,0)"/><path d=" M 14.746 16.447 C 14.746 16.286 14.87 16.156 15.024 16.156 C 15.177 16.156 15.302 16.286 15.302 16.447 C 15.302 16.607 15.177 16.738 15.024 16.738 C 14.87 16.738 14.746 16.607 14.746 16.447 Z " fill="rgb(0,0,0)"/><line x1="10.109" y1="14.661" x2="10.851" y2="19.984" vector-effect="non-scaling-stroke" stroke-width="0.186" stroke="rgb(0,0,0)" stroke-linejoin="miter" stroke-linecap="butt" stroke-miterlimit="3"/><line x1="8.254" y1="21.572" x2="16.6" y2="18.957" vector-effect="non-scaling-stroke" stroke-width="0.186" stroke="rgb(0,0,0)" stroke-linejoin="miter" stroke-linecap="butt" stroke-miterlimit="3"/></svg>