<?xml version="1.0" standalone="no"?><!-- Generator: Gravit.io --><svg xmlns="http://www.w3.org/2000/svg" xmlns:xlink="http://www.w3.org/1999/xlink" style="isolation:isolate" viewBox="-0.744 -0.72 128.744 128.991" width="128.744" height="128.991"><path d=" M 0 63.776 C 0 28.59 28.368 0.025 63.31 0.025 C 98.253 0.025 126.621 28.59 126.621 63.776 C 126.621 98.961 98.253 127.527 63.31 127.527 C 28.368 127.527 0 98.961 0 63.776 Z " fill="rgb(0,255,255)" vector-effect="non-scaling-stroke" stroke-width="0.496" stroke="rgb(0,238,238)" stroke-opacity="100" stroke-linejoin="miter" stroke-linecap="square" stroke-miterlimit="3"/><path d=" M 21.763 14.967 L 30.666 14.967 Q 33.881 13.721 36.601 16.959 C 39.322 20.196 25.72 49.332 23.741 51.823 C 21.763 54.313 5.688 63.029 3.957 62.78 Q 2.226 62.531 0 60.788 Q 1.237 45.597 8.903 33.893 Q 16.569 22.188 21.763 14.967 Z " fill="rgb(72,65,0)"/><path d=" M 1.978 63.776 L 8.903 63.776 Q 14.591 70.251 16.817 73.737 C 19.043 77.223 13.107 91.916 8.903 91.667 Q 4.699 91.418 4.946 89.675 L 1.978 69.753 L 1.978 63.776 Z " fill="rgb(72,65,0)"/><path d=" M 46.494 7.994 Q 40.805 19.698 43.526 21.939 C 46.246 24.181 49.956 21.69 53.418 18.951 C 56.88 16.212 60.59 10.733 58.364 7.994 Q 56.138 5.254 46.494 7.994 Z " fill="rgb(72,65,0)"/><path d=" M 56.386 63.776 C 53.171 66.764 46.494 70.998 48.472 75.729 C 50.45 80.461 53.171 88.181 58.364 87.682 C 63.558 87.184 71.719 80.212 70.235 74.733 C 68.751 69.254 68.009 65.768 69.246 63.776 C 70.482 61.784 77.901 55.309 85.073 56.803 C 92.245 58.297 94.718 58.297 98.922 60.788 C 103.127 63.278 110.298 60.289 113.761 55.807 C 117.223 51.325 119.201 51.823 118.707 44.85 Q 118.212 37.877 113.761 24.928 L 104.858 15.963 L 95.955 14.967 Q 86.062 18.453 83.095 21.939 C 80.127 25.426 76.17 31.153 69.246 32.896 Q 62.321 34.64 62.321 29.908 L 56.386 31.9 L 53.418 36.881 L 50.45 45.846 L 56.386 48.834 L 53.418 58.795 L 56.386 63.776 Z " fill="rgb(72,65,0)"/><path d=" M 107.825 85.69 Q 96.944 94.655 101.89 95.651 C 106.836 96.647 111.04 96.647 113.761 92.663 Q 116.481 88.679 107.825 85.69 Z " fill="rgb(72,65,0)"/><path d=" M 56.386 124.539 Q 56.386 125.037 60.343 125.535 C 64.3 126.033 69.493 127.278 70.235 124.539 C 70.977 121.799 64.3 119.558 62.321 120.554 Q 60.343 121.55 56.386 124.539 Z " fill="rgb(255,255,255)"/><path d=" M 56.386 2.017 Q 58.364 2.017 68.256 2.017 Q 68.998 0.274 65.289 0.025 Q 61.579 -0.224 56.386 2.017 Z " fill="rgb(255,255,255)"/><path d=" M 34.128 94.282 C 34.128 75.796 48.756 60.788 66.773 60.788 C 84.79 60.788 99.417 75.796 99.417 94.282 C 99.417 112.768 84.79 127.776 66.773 127.776 C 48.756 127.776 34.128 112.768 34.128 94.282 Z " fill="rgb(255,255,255)"/><path d=" M 64.794 60.265 Q 64.547 62.008 94.471 60.265 Q 104.61 56.778 107.331 54.288 C 110.051 51.798 118.707 43.58 116.234 34.366 Q 113.761 25.152 113.266 23.409 Q 119.201 33.619 121.18 38.35 C 123.158 43.082 126.126 49.058 127.115 56.28 C 128.104 63.502 129.094 74.957 125.137 82.179 C 124.84 82.72 124.419 83.357 123.926 84.056 C 121.129 88.019 116.032 93.959 118.398 95.564 C 121.18 97.453 113.513 104.716 111.288 107.082 C 106.836 111.813 94.965 121.525 84.579 124.016 C 74.192 126.506 66.031 128.872 72.708 126.008 C 79.385 123.144 65.041 58.521 64.794 60.265 Z " fill="rgb(255,255,255)"/><path d=" M 80.622 123.019 L 68.751 126.008 L 72.708 128 L 94.471 121.027 L 80.622 123.019 Z " fill="rgb(255,255,255)"/><path d=" M 123.926 77.198 L 122.169 90.148 L 113.266 104.093 L 123.926 77.198 Z " fill="rgb(255,255,255)"/><path d=" M 126.126 77.198 L 120.191 95.128 L 120.191 80.187 L 126.126 77.198 Z " fill="rgb(255,255,255)"/><path d=" M 113.266 23.409 L 120.191 33.37 L 126.126 49.307 L 126.126 56.28 L 113.266 23.409 Z " fill="rgb(255,255,255)"/><path d=" M 36.107 94.63 C 36.107 93.806 36.772 93.136 37.59 93.136 C 38.409 93.136 39.074 93.806 39.074 94.63 C 39.074 95.455 38.409 96.125 37.59 96.125 C 36.772 96.125 36.107 95.455 36.107 94.63 Z " fill="rgb(0,0,0)"/><path d=" M 78.643 87.715 C 78.643 86.859 79.308 86.163 80.127 86.163 C 80.946 86.163 81.611 86.859 81.611 87.715 C 81.611 88.572 80.946 89.267 80.127 89.267 C 79.308 89.267 78.643 88.572 78.643 87.715 Z " fill="rgb(0,0,0)"/><line x1="53.913" y1="78.195" x2="57.87" y2="106.584" vector-effect="non-scaling-stroke" stroke-width="0.993" stroke="rgb(0,0,0)" stroke-linejoin="miter" stroke-linecap="butt" stroke-miterlimit="3"/><line x1="44.02" y1="115.051" x2="88.535" y2="101.105" vector-effect="non-scaling-stroke" stroke-width="0.993" stroke="rgb(0,0,0)" stroke-linejoin="miter" stroke-linecap="butt" stroke-miterlimit="3"/></svg>