<?xml version="1.0" standalone="no"?><!-- Generator: Gravit.io --><svg xmlns="http://www.w3.org/2000/svg" xmlns:xlink="http://www.w3.org/1999/xlink" style="isolation:isolate" viewBox="-0.093 -0.09 16.093 16.124" width="16.093" height="16.124"><path d=" M 0 7.972 C 0 3.574 3.546 0.003 7.914 0.003 C 12.282 0.003 15.828 3.574 15.828 7.972 C 15.828 12.37 12.282 15.941 7.914 15.941 C 3.546 15.941 0 12.37 0 7.972 Z " fill="rgb(0,255,255)" vector-effect="non-scaling-stroke" stroke-width="0.062" stroke="rgb(0,238,238)" stroke-opacity="100" stroke-linejoin="miter" stroke-linecap="square" stroke-miterlimit="3"/><path d=" M 2.72 1.871 L 3.833 1.871 Q 4.235 1.715 4.575 2.12 C 4.915 2.525 3.215 6.167 2.968 6.478 C 2.72 6.789 0.711 7.879 0.495 7.847 Q 0.278 7.816 0 7.598 Q 0.155 5.7 1.113 4.237 Q 2.071 2.774 2.72 1.871 Z " fill="rgb(72,65,0)"/><path d=" M 0.247 7.972 L 1.113 7.972 Q 1.824 8.781 2.102 9.217 C 2.38 9.653 1.638 11.489 1.113 11.458 Q 0.587 11.427 0.618 11.209 L 0.247 8.719 L 0.247 7.972 Z " fill="rgb(72,65,0)"/><path d=" M 5.812 0.999 Q 5.101 2.462 5.441 2.742 C 5.781 3.023 6.244 2.711 6.677 2.369 C 7.11 2.026 7.574 1.342 7.296 0.999 Q 7.017 0.657 5.812 0.999 Z " fill="rgb(72,65,0)"/><path d=" M 7.048 7.972 C 6.646 8.346 5.812 8.875 6.059 9.466 C 6.306 10.058 6.646 11.023 7.296 10.96 C 7.945 10.898 8.965 10.026 8.779 9.342 C 8.594 8.657 8.501 8.221 8.656 7.972 C 8.81 7.723 9.738 6.914 10.634 7.1 C 11.531 7.287 11.84 7.287 12.365 7.598 C 12.891 7.91 13.787 7.536 14.22 6.976 C 14.653 6.416 14.9 6.478 14.838 5.606 Q 14.777 4.735 14.22 3.116 L 13.107 1.995 L 11.994 1.871 Q 10.758 2.307 10.387 2.742 C 10.016 3.178 9.521 3.894 8.656 4.112 Q 7.79 4.33 7.79 3.739 L 7.048 3.988 L 6.677 4.61 L 6.306 5.731 L 7.048 6.104 L 6.677 7.349 L 7.048 7.972 Z " fill="rgb(72,65,0)"/><path d=" M 13.478 10.711 Q 12.118 11.832 12.736 11.956 C 13.355 12.081 13.88 12.081 14.22 11.583 Q 14.56 11.085 13.478 10.711 Z " fill="rgb(72,65,0)"/><path d=" M 7.048 15.567 Q 7.048 15.63 7.543 15.692 C 8.037 15.754 8.687 15.91 8.779 15.567 C 8.872 15.225 8.037 14.945 7.79 15.069 Q 7.543 15.194 7.048 15.567 Z " fill="rgb(255,255,255)"/><path d=" M 7.048 0.252 Q 7.296 0.252 8.532 0.252 Q 8.625 0.034 8.161 0.003 Q 7.697 -0.028 7.048 0.252 Z " fill="rgb(255,255,255)"/><path d=" M 4.266 11.785 C 4.266 9.474 6.094 7.598 8.347 7.598 C 10.599 7.598 12.427 9.474 12.427 11.785 C 12.427 14.096 10.599 15.972 8.347 15.972 C 6.094 15.972 4.266 14.096 4.266 11.785 Z " fill="rgb(255,255,255)"/><path d=" M 8.099 7.533 Q 8.068 7.751 11.809 7.533 Q 13.076 7.097 13.416 6.786 C 13.756 6.475 14.838 5.447 14.529 4.296 Q 14.22 3.144 14.158 2.926 Q 14.9 4.202 15.147 4.794 C 15.395 5.385 15.766 6.132 15.889 7.035 C 16.013 7.938 16.137 9.37 15.642 10.272 C 15.605 10.34 15.552 10.42 15.491 10.507 C 15.141 11.002 14.504 11.745 14.8 11.946 C 15.147 12.182 14.189 13.089 13.911 13.385 C 13.355 13.977 11.871 15.191 10.572 15.502 C 9.274 15.813 8.254 16.109 9.088 15.751 C 9.923 15.393 8.13 7.315 8.099 7.533 Z " fill="rgb(255,255,255)"/><path d=" M 10.078 15.377 L 8.594 15.751 L 9.088 16 L 11.809 15.128 L 10.078 15.377 Z " fill="rgb(255,255,255)"/><path d=" M 15.491 9.65 L 15.271 11.268 L 14.158 13.012 L 15.491 9.65 Z " fill="rgb(255,255,255)"/><path d=" M 15.766 9.65 L 15.024 11.891 L 15.024 10.023 L 15.766 9.65 Z " fill="rgb(255,255,255)"/><path d=" M 14.158 2.926 L 15.024 4.171 L 15.766 6.163 L 15.766 7.035 L 14.158 2.926 Z " fill="rgb(255,255,255)"/><path d=" M 4.513 11.829 C 4.513 11.726 4.596 11.642 4.699 11.642 C 4.801 11.642 4.884 11.726 4.884 11.829 C 4.884 11.932 4.801 12.016 4.699 12.016 C 4.596 12.016 4.513 11.932 4.513 11.829 Z " fill="rgb(0,0,0)"/><path d=" M 9.83 10.964 C 9.83 10.857 9.914 10.77 10.016 10.77 C 10.118 10.77 10.201 10.857 10.201 10.964 C 10.201 11.071 10.118 11.158 10.016 11.158 C 9.914 11.158 9.83 11.071 9.83 10.964 Z " fill="rgb(0,0,0)"/><line x1="6.739" y1="9.774" x2="7.234" y2="13.323" vector-effect="non-scaling-stroke" stroke-width="0.124" stroke="rgb(0,0,0)" stroke-linejoin="miter" stroke-linecap="butt" stroke-miterlimit="3"/><line x1="5.503" y1="14.381" x2="11.067" y2="12.638" vector-effect="non-scaling-stroke" stroke-width="0.124" stroke="rgb(0,0,0)" stroke-linejoin="miter" stroke-linecap="butt" stroke-miterlimit="3"/></svg>