<?xml version="1.0" standalone="no"?><!-- Generator: Gravit.io --><svg xmlns="http://www.w3.org/2000/svg" xmlns:xlink="http://www.w3.org/1999/xlink" style="isolation:isolate" viewBox="-0.372 -0.36 64.372 64.495" width="64.372" height="64.495"><path d=" M 0 31.888 C 0 14.295 14.184 0.012 31.655 0.012 C 49.126 0.012 63.31 14.295 63.31 31.888 C 63.31 49.481 49.126 63.763 31.655 63.763 C 14.184 63.763 0 49.481 0 31.888 Z " fill="rgb(0,255,255)" vector-effect="non-scaling-stroke" stroke-width="0.248" stroke="rgb(0,238,238)" stroke-opacity="100" stroke-linejoin="miter" stroke-linecap="square" stroke-miterlimit="3"/><path d=" M 10.881 7.483 L 15.333 7.483 Q 16.94 6.861 18.301 8.479 C 19.661 10.098 12.86 24.666 11.871 25.911 C 10.881 27.156 2.844 31.514 1.978 31.39 Q 1.113 31.265 0 30.394 Q 0.618 22.798 4.452 16.946 Q 8.285 11.094 10.881 7.483 Z " fill="rgb(72,65,0)"/><path d=" M 0.989 31.888 L 4.452 31.888 Q 7.296 35.125 8.408 36.868 C 9.521 38.612 6.554 45.958 4.452 45.833 Q 2.349 45.709 2.473 44.837 L 0.989 34.876 L 0.989 31.888 Z " fill="rgb(72,65,0)"/><path d=" M 23.247 3.997 Q 20.403 9.849 21.763 10.97 C 23.123 12.09 24.978 10.845 26.709 9.475 C 28.44 8.106 30.295 5.367 29.182 3.997 Q 28.069 2.627 23.247 3.997 Z " fill="rgb(72,65,0)"/><path d=" M 28.193 31.888 C 26.585 33.382 23.247 35.499 24.236 37.865 C 25.225 40.23 26.585 44.09 29.182 43.841 C 31.779 43.592 35.859 40.106 35.117 37.367 C 34.376 34.627 34.005 32.884 34.623 31.888 C 35.241 30.892 38.951 27.654 42.537 28.402 C 46.123 29.149 47.359 29.149 49.461 30.394 C 51.563 31.639 55.149 30.145 56.88 27.904 C 58.611 25.662 59.601 25.911 59.353 22.425 Q 59.106 18.939 56.88 12.464 L 52.429 7.981 L 47.977 7.483 Q 43.031 9.226 41.547 10.97 C 40.064 12.713 38.085 15.577 34.623 16.448 Q 31.161 17.32 31.161 14.954 L 28.193 15.95 L 26.709 18.44 L 25.225 22.923 L 28.193 24.417 L 26.709 29.398 L 28.193 31.888 Z " fill="rgb(72,65,0)"/><path d=" M 53.913 42.845 Q 48.472 47.328 50.945 47.826 C 53.418 48.324 55.52 48.324 56.88 46.332 Q 58.241 44.339 53.913 42.845 Z " fill="rgb(72,65,0)"/><path d=" M 28.193 62.269 Q 28.193 62.518 30.171 62.767 C 32.15 63.016 34.746 63.639 35.117 62.269 C 35.488 60.9 32.15 59.779 31.161 60.277 Q 30.171 60.775 28.193 62.269 Z " fill="rgb(255,255,255)"/><path d=" M 28.193 1.009 Q 29.182 1.009 34.128 1.009 Q 34.499 0.137 32.644 0.012 Q 30.79 -0.112 28.193 1.009 Z " fill="rgb(255,255,255)"/><path d=" M 17.064 47.141 C 17.064 37.898 24.378 30.394 33.386 30.394 C 42.395 30.394 49.708 37.898 49.708 47.141 C 49.708 56.384 42.395 63.888 33.386 63.888 C 24.378 63.888 17.064 56.384 17.064 47.141 Z " fill="rgb(255,255,255)"/><path d=" M 32.397 30.132 Q 32.273 31.004 47.235 30.132 Q 52.305 28.389 53.665 27.144 C 55.026 25.899 59.353 21.79 58.117 17.183 Q 56.88 12.576 56.633 11.704 Q 59.601 16.809 60.59 19.175 C 61.579 21.541 63.063 24.529 63.558 28.14 C 64.052 31.751 64.547 37.479 62.568 41.089 C 62.42 41.36 62.209 41.679 61.963 42.028 C 60.565 44.01 58.016 46.979 59.199 47.782 C 60.59 48.726 56.757 52.358 55.644 53.541 C 53.418 55.907 47.483 60.763 42.289 62.008 C 37.096 63.253 33.015 64.436 36.354 63.004 C 39.693 61.572 32.521 29.261 32.397 30.132 Z " fill="rgb(255,255,255)"/><path d=" M 40.311 61.51 L 34.376 63.004 L 36.354 64 L 47.235 60.514 L 40.311 61.51 Z " fill="rgb(255,255,255)"/><path d=" M 61.963 38.599 L 61.085 45.074 L 56.633 52.047 L 61.963 38.599 Z " fill="rgb(255,255,255)"/><path d=" M 63.063 38.599 L 60.095 47.564 L 60.095 40.093 L 63.063 38.599 Z " fill="rgb(255,255,255)"/><path d=" M 56.633 11.704 L 60.095 16.685 L 63.063 24.654 L 63.063 28.14 L 56.633 11.704 Z " fill="rgb(255,255,255)"/><path d=" M 18.053 47.315 C 18.053 46.903 18.386 46.568 18.795 46.568 C 19.205 46.568 19.537 46.903 19.537 47.315 C 19.537 47.728 19.205 48.062 18.795 48.062 C 18.386 48.062 18.053 47.728 18.053 47.315 Z " fill="rgb(0,0,0)"/><path d=" M 39.322 43.858 C 39.322 43.429 39.654 43.082 40.064 43.082 C 40.473 43.082 40.805 43.429 40.805 43.858 C 40.805 44.286 40.473 44.633 40.064 44.633 C 39.654 44.633 39.322 44.286 39.322 43.858 Z " fill="rgb(0,0,0)"/><line x1="26.956" y1="39.097" x2="28.935" y2="53.292" vector-effect="non-scaling-stroke" stroke-width="0.496" stroke="rgb(0,0,0)" stroke-linejoin="miter" stroke-linecap="butt" stroke-miterlimit="3"/><line x1="22.01" y1="57.525" x2="44.268" y2="50.553" vector-effect="non-scaling-stroke" stroke-width="0.496" stroke="rgb(0,0,0)" stroke-linejoin="miter" stroke-linecap="butt" stroke-miterlimit="3"/></svg>