<?xml version="1.0" standalone="no"?><!-- Generator: Gravit.io --><svg xmlns="http://www.w3.org/2000/svg" xmlns:xlink="http://www.w3.org/1999/xlink" style="isolation:isolate" viewBox="-0.279 -0.27 48.279 48.372" width="48.279" height="48.372"><path d=" M 0 23.916 C 0 10.721 10.638 0.009 23.741 0.009 C 36.845 0.009 47.483 10.721 47.483 23.916 C 47.483 37.111 36.845 47.823 23.741 47.823 C 10.638 47.823 0 37.111 0 23.916 Z " fill="rgb(0,255,255)" vector-effect="non-scaling-stroke" stroke-width="0.186" stroke="rgb(0,238,238)" stroke-opacity="100" stroke-linejoin="miter" stroke-linecap="square" stroke-miterlimit="3"/><path d=" M 8.161 5.612 L 11.5 5.612 Q 12.705 5.146 13.725 6.36 C 14.746 7.574 9.645 18.5 8.903 19.433 C 8.161 20.367 2.133 23.636 1.484 23.542 Q 0.835 23.449 0 22.795 Q 0.464 17.099 3.339 12.71 Q 6.214 8.321 8.161 5.612 Z " fill="rgb(72,65,0)"/><path d=" M 0.742 23.916 L 3.339 23.916 Q 5.472 26.344 6.306 27.651 C 7.141 28.959 4.915 34.468 3.339 34.375 Q 1.762 34.282 1.855 33.628 L 0.742 26.157 L 0.742 23.916 Z " fill="rgb(72,65,0)"/><path d=" M 17.435 2.998 Q 15.302 7.387 16.322 8.227 C 17.342 9.068 18.733 8.134 20.032 7.107 C 21.33 6.079 22.721 4.025 21.887 2.998 Q 21.052 1.97 17.435 2.998 Z " fill="rgb(72,65,0)"/><path d=" M 21.145 23.916 C 19.939 25.037 17.435 26.624 18.177 28.398 C 18.919 30.173 19.939 33.068 21.887 32.881 C 23.834 32.694 26.895 30.079 26.338 28.025 C 25.782 25.97 25.503 24.663 25.967 23.916 C 26.431 23.169 29.213 20.741 31.902 21.301 C 34.592 21.861 35.519 21.861 37.096 22.795 C 38.672 23.729 41.362 22.609 42.66 20.928 C 43.959 19.247 44.701 19.433 44.515 16.819 Q 44.33 14.204 42.66 9.348 L 39.322 5.986 L 35.983 5.612 Q 32.273 6.92 31.161 8.227 C 30.048 9.535 28.564 11.682 25.967 12.336 Q 23.37 12.99 23.37 11.216 L 21.145 11.963 L 20.032 13.83 L 18.919 17.192 L 21.145 18.313 L 20.032 22.048 L 21.145 23.916 Z " fill="rgb(72,65,0)"/><path d=" M 40.435 32.134 Q 36.354 35.496 38.209 35.869 C 40.064 36.243 41.64 36.243 42.66 34.749 Q 43.68 33.254 40.435 32.134 Z " fill="rgb(72,65,0)"/><path d=" M 21.145 46.702 Q 21.145 46.889 22.628 47.075 C 24.112 47.262 26.06 47.729 26.338 46.702 C 26.616 45.675 24.112 44.834 23.37 45.208 Q 22.628 45.581 21.145 46.702 Z " fill="rgb(255,255,255)"/><path d=" M 21.145 0.756 Q 21.887 0.756 25.596 0.756 Q 25.874 0.103 24.483 0.009 Q 23.092 -0.084 21.145 0.756 Z " fill="rgb(255,255,255)"/><path d=" M 12.798 35.356 C 12.798 28.423 18.283 22.795 25.04 22.795 C 31.796 22.795 37.281 28.423 37.281 35.356 C 37.281 42.288 31.796 47.916 25.04 47.916 C 18.283 47.916 12.798 42.288 12.798 35.356 Z " fill="rgb(255,255,255)"/><path d=" M 24.298 22.599 Q 24.205 23.253 35.427 22.599 Q 39.229 21.292 40.249 20.358 C 41.269 19.424 44.515 16.342 43.588 12.887 Q 42.66 9.432 42.475 8.778 Q 44.701 12.607 45.442 14.381 C 46.184 16.156 47.297 18.397 47.668 21.105 C 48.039 23.813 48.41 28.109 46.926 30.817 C 46.815 31.02 46.657 31.259 46.472 31.521 C 45.423 33.007 43.512 35.235 44.399 35.837 C 45.442 36.545 42.568 39.268 41.733 40.156 C 40.064 41.93 35.612 45.572 31.717 46.506 C 27.822 47.44 24.761 48.327 27.265 47.253 C 29.769 46.179 24.391 21.946 24.298 22.599 Z " fill="rgb(255,255,255)"/><path d=" M 30.233 46.132 L 25.782 47.253 L 27.265 48 L 35.427 45.385 L 30.233 46.132 Z " fill="rgb(255,255,255)"/><path d=" M 46.472 28.949 L 45.813 33.805 L 42.475 39.035 L 46.472 28.949 Z " fill="rgb(255,255,255)"/><path d=" M 47.297 28.949 L 45.071 35.673 L 45.071 30.07 L 47.297 28.949 Z " fill="rgb(255,255,255)"/><path d=" M 42.475 8.778 L 45.071 12.514 L 47.297 18.49 L 47.297 21.105 L 42.475 8.778 Z " fill="rgb(255,255,255)"/><path d=" M 13.54 35.486 C 13.54 35.177 13.789 34.926 14.096 34.926 C 14.404 34.926 14.653 35.177 14.653 35.486 C 14.653 35.796 14.404 36.047 14.096 36.047 C 13.789 36.047 13.54 35.796 13.54 35.486 Z " fill="rgb(0,0,0)"/><path d=" M 29.491 32.893 C 29.491 32.572 29.741 32.311 30.048 32.311 C 30.355 32.311 30.604 32.572 30.604 32.893 C 30.604 33.214 30.355 33.475 30.048 33.475 C 29.741 33.475 29.491 33.214 29.491 32.893 Z " fill="rgb(0,0,0)"/><line x1="20.217" y1="29.323" x2="21.701" y2="39.969" vector-effect="non-scaling-stroke" stroke-width="0.372" stroke="rgb(0,0,0)" stroke-linejoin="miter" stroke-linecap="butt" stroke-miterlimit="3"/><line x1="16.508" y1="43.144" x2="33.201" y2="37.914" vector-effect="non-scaling-stroke" stroke-width="0.372" stroke="rgb(0,0,0)" stroke-linejoin="miter" stroke-linecap="butt" stroke-miterlimit="3"/></svg>