<?xml version="1.0" standalone="no"?><!-- Generator: Gravit.io --><svg xmlns="http://www.w3.org/2000/svg" xmlns:xlink="http://www.w3.org/1999/xlink" style="isolation:isolate" viewBox="-0.186 -0.18 32.186 32.248" width="32.186" height="32.248"><path d=" M 0 15.944 C 0 7.148 7.092 0.006 15.828 0.006 C 24.563 0.006 31.655 7.148 31.655 15.944 C 31.655 24.74 24.563 31.882 15.828 31.882 C 7.092 31.882 0 24.74 0 15.944 Z " fill="rgb(0,255,255)" vector-effect="non-scaling-stroke" stroke-width="0.124" stroke="rgb(0,238,238)" stroke-opacity="100" stroke-linejoin="miter" stroke-linecap="square" stroke-miterlimit="3"/><path d=" M 5.441 3.742 L 7.666 3.742 Q 8.47 3.43 9.15 4.24 C 9.83 5.049 6.43 12.333 5.935 12.956 C 5.441 13.578 1.422 15.757 0.989 15.695 Q 0.556 15.633 0 15.197 Q 0.309 11.399 2.226 8.473 Q 4.142 5.547 5.441 3.742 Z " fill="rgb(72,65,0)"/><path d=" M 0.495 15.944 L 2.226 15.944 Q 3.648 17.563 4.204 18.434 C 4.761 19.306 3.277 22.979 2.226 22.917 Q 1.175 22.854 1.237 22.419 L 0.495 17.438 L 0.495 15.944 Z " fill="rgb(72,65,0)"/><path d=" M 11.623 1.998 Q 10.201 4.925 10.881 5.485 C 11.562 6.045 12.489 5.423 13.355 4.738 C 14.22 4.053 15.147 2.683 14.591 1.998 Q 14.035 1.314 11.623 1.998 Z " fill="rgb(72,65,0)"/><path d=" M 14.096 15.944 C 13.293 16.691 11.623 17.749 12.118 18.932 C 12.613 20.115 13.293 22.045 14.591 21.921 C 15.889 21.796 17.93 20.053 17.559 18.683 C 17.188 17.314 17.002 16.442 17.311 15.944 C 17.621 15.446 19.475 13.827 21.268 14.201 C 23.061 14.574 23.68 14.574 24.731 15.197 C 25.782 15.819 27.575 15.072 28.44 13.952 C 29.306 12.831 29.8 12.956 29.677 11.212 Q 29.553 9.469 28.44 6.232 L 26.214 3.991 L 23.989 3.742 Q 21.516 4.613 20.774 5.485 C 20.032 6.356 19.043 7.788 17.311 8.224 Q 15.58 8.66 15.58 7.477 L 14.096 7.975 L 13.355 9.22 L 12.613 11.461 L 14.096 12.209 L 13.355 14.699 L 14.096 15.944 Z " fill="rgb(72,65,0)"/><path d=" M 26.956 21.423 Q 24.236 23.664 25.473 23.913 C 26.709 24.162 27.76 24.162 28.44 23.166 Q 29.12 22.17 26.956 21.423 Z " fill="rgb(72,65,0)"/><path d=" M 14.096 31.135 Q 14.096 31.259 15.086 31.384 C 16.075 31.508 17.373 31.819 17.559 31.135 C 17.744 30.45 16.075 29.889 15.58 30.139 Q 15.086 30.388 14.096 31.135 Z " fill="rgb(255,255,255)"/><path d=" M 14.096 0.504 Q 14.591 0.504 17.064 0.504 Q 17.25 0.068 16.322 0.006 Q 15.395 -0.056 14.096 0.504 Z " fill="rgb(255,255,255)"/><path d=" M 8.532 23.57 C 8.532 18.949 12.189 15.197 16.693 15.197 C 21.197 15.197 24.854 18.949 24.854 23.57 C 24.854 28.192 21.197 31.944 16.693 31.944 C 12.189 31.944 8.532 28.192 8.532 23.57 Z " fill="rgb(255,255,255)"/><path d=" M 16.199 15.066 Q 16.137 15.502 23.618 15.066 Q 26.153 14.195 26.833 13.572 C 27.513 12.949 29.677 10.895 29.058 8.591 Q 28.44 6.288 28.317 5.852 Q 29.8 8.405 30.295 9.588 C 30.79 10.77 31.531 12.265 31.779 14.07 C 32.026 15.875 32.273 18.739 31.284 20.545 C 31.21 20.68 31.105 20.839 30.981 21.014 C 30.282 22.005 29.008 23.49 29.599 23.891 C 30.295 24.363 28.378 26.179 27.822 26.77 C 26.709 27.953 23.741 30.381 21.145 31.004 C 18.548 31.626 16.508 32.218 18.177 31.502 C 19.846 30.786 16.26 14.63 16.199 15.066 Z " fill="rgb(255,255,255)"/><path d=" M 20.155 30.755 L 17.188 31.502 L 18.177 32 L 23.618 30.257 L 20.155 30.755 Z " fill="rgb(255,255,255)"/><path d=" M 30.981 19.3 L 30.542 22.537 L 28.317 26.023 L 30.981 19.3 Z " fill="rgb(255,255,255)"/><path d=" M 31.531 19.3 L 30.048 23.782 L 30.048 20.047 L 31.531 19.3 Z " fill="rgb(255,255,255)"/><path d=" M 28.317 5.852 L 30.048 8.342 L 31.531 12.327 L 31.531 14.07 L 28.317 5.852 Z " fill="rgb(255,255,255)"/><path d=" M 9.027 23.658 C 9.027 23.451 9.193 23.284 9.398 23.284 C 9.602 23.284 9.769 23.451 9.769 23.658 C 9.769 23.864 9.602 24.031 9.398 24.031 C 9.193 24.031 9.027 23.864 9.027 23.658 Z " fill="rgb(0,0,0)"/><path d=" M 19.661 21.929 C 19.661 21.715 19.827 21.541 20.032 21.541 C 20.237 21.541 20.403 21.715 20.403 21.929 C 20.403 22.143 20.237 22.317 20.032 22.317 C 19.827 22.317 19.661 22.143 19.661 21.929 Z " fill="rgb(0,0,0)"/><line x1="13.478" y1="19.549" x2="14.467" y2="26.646" vector-effect="non-scaling-stroke" stroke-width="0.248" stroke="rgb(0,0,0)" stroke-linejoin="miter" stroke-linecap="butt" stroke-miterlimit="3"/><line x1="11.005" y1="28.763" x2="22.134" y2="25.276" vector-effect="non-scaling-stroke" stroke-width="0.248" stroke="rgb(0,0,0)" stroke-linejoin="miter" stroke-linecap="butt" stroke-miterlimit="3"/></svg>